Coordinates
version=1
nRows=60
nColumns=12
inDegrees=yes

Units are S.I. units (second, meters, Newtons, ...)
Angles are in degrees

endheader
time	SC_y	SC_z	SC_x	AC_y	AC_z	AC_x	GH_y	GH_z	GH_yy	EL_x	PS_y
       0.0              -40.95          17.16           37.7          30.22         -16.81          7.854          102.5          56.66          138.3          7.031          127.4
  0.006971              -40.95          17.16           37.7          30.22         -16.81          7.853          102.5          56.66          138.2          7.047          127.4
   0.01394              -40.95          17.16           37.7          30.22         -16.81          7.853          102.5          56.65          138.2          7.063          127.4
   0.02091              -40.95          17.16           37.7          30.22          -16.8          7.852          102.4          56.65          138.2           7.08          127.4
   0.02788              -40.94          17.16          37.71          30.22          -16.8          7.851          102.4          56.65          138.1          7.098          127.4
   0.03485              -40.94          17.16          37.71          30.22         -16.79          7.851          102.3          56.64          138.1          7.117          127.4
   0.04183              -40.94          17.16          37.71          30.22         -16.79           7.85          102.3          56.64          138.0          7.138          127.3
    0.0488              -40.93          17.16          37.71          30.22         -16.78          7.849          102.2          56.63          138.0           7.16          127.3
   0.05577              -40.93          17.16          37.72          30.22         -16.78          7.848          102.2          56.63          137.9          7.184          127.3
   0.06274              -40.93          17.16          37.72          30.22         -16.77          7.847          102.1          56.62          137.9          7.209          127.3
   0.06971              -40.92          17.16          37.72          30.22         -16.76          7.846          102.0          56.62          137.8          7.236          127.3
   0.07668              -40.92          17.16          37.73          30.22         -16.76          7.845          102.0          56.61          137.8          7.266          127.2
   0.08365              -40.91          17.17          37.73          30.22         -16.75          7.844          101.9          56.61          137.7          7.297          127.2
   0.09062              -40.91          17.17          37.74          30.22         -16.74          7.843          101.8           56.6          137.6          7.332          127.2
   0.09759               -40.9          17.17          37.74          30.22         -16.73          7.842          101.7          56.59          137.5          7.369          127.1
    0.1046              -40.89          17.17          37.74          30.23         -16.72           7.84          101.6          56.58          137.4          7.409          127.1
    0.1115              -40.89          17.17          37.75          30.23         -16.71          7.839          101.5          56.58          137.4          7.452          127.1
    0.1185              -40.88          17.17          37.76          30.23          -16.7          7.837          101.4          56.57          137.2            7.5          127.0
    0.1255              -40.87          17.17          37.76          30.23         -16.68          7.835          101.3          56.56          137.1          7.552          127.0
    0.1324              -40.86          17.17          37.77          30.23         -16.67          7.833          101.2          56.54          137.0          7.609          126.9
    0.1394              -40.85          17.17          37.78          30.23         -16.66          7.831          101.0          56.53          136.9          7.671          126.9
    0.1464              -40.84          17.17          37.78          30.23         -16.64          7.828          100.8          56.52          136.7           7.74          126.8
    0.1534              -40.83          17.17          37.79          30.24         -16.62          7.825          100.7           56.5          136.6          7.816          126.8
    0.1603              -40.81          17.18           37.8          30.24          -16.6          7.822          100.5          56.48          136.4            7.9          126.7
    0.1673               -40.8          17.18          37.82          30.24         -16.57          7.819          100.2          56.47          136.2          7.993          126.6
    0.1743              -40.78          17.18          37.83          30.24         -16.55          7.815          99.98          56.44          135.9          8.097          126.5
    0.1812              -40.76          17.18          37.84          30.25         -16.52          7.811           99.7          56.42          135.7          8.214          126.4
    0.1882              -40.74          17.18          37.86          30.25         -16.49          7.806          99.39          56.39          135.4          8.345          126.3
    0.1952              -40.72          17.19          37.88          30.25         -16.45          7.801          99.03          56.36          135.1          8.494          126.2
    0.2022              -40.69          17.19           37.9          30.26         -16.41          7.795          98.62          56.33          134.7          8.662          126.0
    0.2091              -40.66          17.19          37.92          30.26         -16.36          7.788          98.16          56.29          134.3          8.855          125.9
    0.2161              -40.62           17.2          37.95          30.27          -16.3           7.78          97.63          56.25          133.8          9.076          125.7
    0.2231              -40.58           17.2          37.98          30.28         -16.24          7.771          97.02           56.2          133.2           9.33          125.4
      0.23              -40.54           17.2          38.01          30.28         -16.17           7.76          96.31          56.14          132.6          9.627          125.2
     0.237              -40.48          17.21          38.05          30.29         -16.08          7.747          95.48          56.07          131.8          9.973          124.9
     0.244              -40.41          17.22           38.1           30.3         -15.98          7.733           94.5          55.98          130.9          10.38          124.5
     0.251              -40.34          17.23          38.16          30.32         -15.86          7.715          93.33          55.89          129.9          10.87          124.1
    0.2579              -40.24          17.24          38.23          30.33         -15.71          7.694          91.93          55.77          128.6          11.45          123.6
    0.2649              -40.13          17.25          38.32          30.35         -15.54          7.669          90.24          55.63          127.1          12.15          123.0
    0.2719              -39.99          17.26          38.42          30.37         -15.32          7.637          88.18          55.45          125.2          13.01          122.2
    0.2788              -39.82          17.28          38.55           30.4         -15.06          7.599          85.63          55.24          122.9          14.07          121.3
    0.2858              -39.61           17.3          38.71          30.44         -14.73          7.551          82.45          54.97          120.0           15.4          120.1
    0.2928              -39.34          17.33          38.91          30.48         -14.31          7.491          78.45          54.63          116.3          17.07          118.7
    0.2997               -39.0          17.37          39.17          30.53         -13.78          7.414          73.36          54.21          111.7          19.18          116.8
    0.3067              -38.56          17.41          39.49          30.61         -13.11          7.316          66.84          53.66          105.8           21.9          114.5
    0.3137               -38.0          17.47          39.91           30.7         -12.24           7.19          58.48          52.96          98.16          25.38          111.5
    0.3207              -37.28          17.55          40.45          30.81         -11.13          7.029           47.8          52.06          88.44          29.83          107.6
    0.3276              -36.38          17.64          41.13          30.96         -9.734          6.827          34.37          50.93          76.22          35.42          102.7
    0.3346              -35.29          17.76          41.95          31.14         -8.034           6.58          18.01          49.55          61.32          42.23          96.76
    0.3416              -34.02          17.89           42.9          31.35         -6.064          6.295        -0.9605          47.96          44.05          50.13          89.88
    0.3485              -32.64          18.04          43.94          31.57         -3.931          5.985          -21.5          46.23          25.36          58.68          82.43
    0.3555              -31.26          18.18          44.97           31.8         -1.798          5.676         -42.04           44.5          6.663          67.23          74.98
    0.3625              -29.99          18.32          45.92          32.01         0.1724           5.39         -61.01          42.91          -10.6          75.13          68.09
    0.3695              -28.89          18.44          46.75          32.19          1.872          5.144         -77.37          41.53          -25.5          81.95          62.15
    0.3764              -27.99          18.53          47.42          32.33          3.267          4.941          -90.8           40.4         -37.72          87.54          57.28
    0.3834              -27.28          18.61          47.96          32.45          4.376           4.78         -101.5          39.51         -47.45          91.99          53.41
    0.3904              -26.72          18.67          48.38          32.54          5.244          4.654         -109.8           38.8         -55.06          95.47          50.37
    0.3973              -26.28          18.71          48.71          32.61          5.921          4.556         -116.4          38.26         -60.99          98.18          48.01
    0.4043              -25.94          18.75          48.96          32.67           6.45           4.48         -121.4          37.83         -65.62          100.3          46.16
    0.4113              -25.67          18.78          49.16          32.71          6.866          4.419         -125.4          37.49         -69.26          102.0          44.71
